name rise30.2954peak35.7071fall66.7804.mot
datacolumns 19
datarows 15
range 18.59659800000000 18.61994000000000
endheader
time	ground_force1_vx	ground_force1_vy	ground_force1_vz	ground_force1_px	ground_force1_py	ground_force1_pz	ground_force2_vx	ground_force2_vy	ground_force2_vz	ground_force2_px	ground_force2_py	ground_force2_pz	ground_torque1_x	ground_torque1_y	ground_torque1_z	ground_torque2_x	ground_torque2_y	ground_torque2_z	
18.59659800000000	64.97865800000000	784.45605399999999	57.95256300000000	0.24768000000000	0.00000000000000	0.11523600000000	0.00000000000000	0.00000000000000	0.00000000000000	0.00000000000000	0.00000000000000	0.00000000000000	0.00000000000000	12.71992900000000	0.00000000000000	0.00000000000000	0.00000000000000	0.00000000000000	
18.59826300000000	64.17591100000000	786.26362600000004	57.93436300000000	0.24674100000000	0.00000000000000	0.11520000000000	0.00000000000000	0.00000000000000	0.00000000000000	0.00000000000000	0.00000000000000	0.00000000000000	0.00000000000000	12.75938000000000	0.00000000000000	0.00000000000000	0.00000000000000	0.00000000000000	
18.59993200000000	63.37097800000000	787.91425000000004	57.91208600000000	0.24581100000000	0.00000000000000	0.11516400000000	0.00000000000000	0.00000000000000	0.00000000000000	0.00000000000000	0.00000000000000	0.00000000000000	0.00000000000000	12.79855300000000	0.00000000000000	0.00000000000000	0.00000000000000	0.00000000000000	
18.60160300000000	62.56455700000000	789.40743899999995	57.88605600000000	0.24489000000000	0.00000000000000	0.11512900000000	0.00000000000000	0.00000000000000	0.00000000000000	0.00000000000000	0.00000000000000	0.00000000000000	0.00000000000000	12.83745000000000	0.00000000000000	0.00000000000000	0.00000000000000	0.00000000000000	
18.60326600000000	61.75728100000000	790.74290499999995	57.85653100000000	0.24397600000000	0.00000000000000	0.11509500000000	0.00000000000000	0.00000000000000	0.00000000000000	0.00000000000000	0.00000000000000	0.00000000000000	0.00000000000000	12.87604700000000	0.00000000000000	0.00000000000000	0.00000000000000	0.00000000000000	
18.60493400000000	60.94972000000000	791.92056700000001	57.82370200000000	0.24306700000000	0.00000000000000	0.11506200000000	0.00000000000000	0.00000000000000	0.00000000000000	0.00000000000000	0.00000000000000	0.00000000000000	0.00000000000000	12.91429700000000	0.00000000000000	0.00000000000000	0.00000000000000	0.00000000000000	
18.60659900000000	60.14238500000000	792.94056000000000	57.78769300000000	0.24216200000000	0.00000000000000	0.11502900000000	0.00000000000000	0.00000000000000	0.00000000000000	0.00000000000000	0.00000000000000	0.00000000000000	0.00000000000000	12.95213400000000	0.00000000000000	0.00000000000000	0.00000000000000	0.00000000000000	
18.60826400000000	59.33572700000000	793.80324599999994	57.74857000000000	0.24125900000000	0.00000000000000	0.11499800000000	0.00000000000000	0.00000000000000	0.00000000000000	0.00000000000000	0.00000000000000	0.00000000000000	0.00000000000000	12.98946700000000	0.00000000000000	0.00000000000000	0.00000000000000	0.00000000000000	
18.60994700000000	58.53014700000000	794.50921800000003	57.70633700000000	0.24035600000000	0.00000000000000	0.11496800000000	0.00000000000000	0.00000000000000	0.00000000000000	0.00000000000000	0.00000000000000	0.00000000000000	0.00000000000000	13.02619000000000	0.00000000000000	0.00000000000000	0.00000000000000	0.00000000000000	
18.61160200000000	57.72599400000000	795.05930599999999	57.66094400000000	0.23945300000000	0.00000000000000	0.11493900000000	0.00000000000000	0.00000000000000	0.00000000000000	0.00000000000000	0.00000000000000	0.00000000000000	0.00000000000000	13.06217700000000	0.00000000000000	0.00000000000000	0.00000000000000	0.00000000000000	
18.61327800000000	56.92356800000000	795.45458799999994	57.61228900000000	0.23854800000000	0.00000000000000	0.11491100000000	0.00000000000000	0.00000000000000	0.00000000000000	0.00000000000000	0.00000000000000	0.00000000000000	0.00000000000000	13.09728900000000	0.00000000000000	0.00000000000000	0.00000000000000	0.00000000000000	
18.61494100000000	56.12312900000000	795.69638499999996	57.56022300000000	0.23763800000000	0.00000000000000	0.11488400000000	0.00000000000000	0.00000000000000	0.00000000000000	0.00000000000000	0.00000000000000	0.00000000000000	0.00000000000000	13.13137100000000	0.00000000000000	0.00000000000000	0.00000000000000	0.00000000000000	
18.61659500000000	55.32489800000000	795.78627500000005	57.50455200000000	0.23672400000000	0.00000000000000	0.11485900000000	0.00000000000000	0.00000000000000	0.00000000000000	0.00000000000000	0.00000000000000	0.00000000000000	0.00000000000000	13.16426000000000	0.00000000000000	0.00000000000000	0.00000000000000	0.00000000000000	
18.61827700000000	54.52905700000000	795.72608500000001	57.44504300000000	0.23580300000000	0.00000000000000	0.11483500000000	0.00000000000000	0.00000000000000	0.00000000000000	0.00000000000000	0.00000000000000	0.00000000000000	0.00000000000000	13.19577900000000	0.00000000000000	0.00000000000000	0.00000000000000	0.00000000000000	
18.61994000000000	53.73576100000000	795.51789900000006	57.38142800000000	0.23487400000000	0.00000000000000	0.11481200000000	0.00000000000000	0.00000000000000	0.00000000000000	0.00000000000000	0.00000000000000	0.00000000000000	0.00000000000000	13.22574600000000	0.00000000000000	0.00000000000000	0.00000000000000	0.00000000000000	
